{
  "accessors": [
    {
      "bufferView": 2,
      "componentType": 5126,
      "count": 1112,
      "max": [
        126.58384704589844,
        86.895309448242188,
        51.982891082763672
      ],
      "min": [
        -181.99864196777344,
        -91.909576416015625,
        -13.621844291687012
      ],
      "type": "VEC3"
    },
    {
      "bufferView": 2,
      "byteOffset": 13344,
      "componentType": 5126,
      "count": 1112,
      "max": [
        0.99695867300033569,
        0.99996250867843628,
        0.99999886751174927
      ],
      "min": [
        -0.99695867300033569,
        -0.99999362230300903,
        -0.99939972162246704
      ],
      "type": "VEC3"
    },
    {
      "bufferView": 3,
      "componentType": 5126,
      "count": 1112,
      "max": [
        0.99993151426315308,
        0.9984099268913269,
        0.99943244457244873,
        1
      ],
      "min": [
        -0.99995702505111694,
        -0.93361890316009521,
        -0.99106484651565552,
        -1
      ],
      "type": "VEC4"
    },
    {
      "bufferView": 1,
      "componentType": 5126,
      "count": 1112,
      "max": [
        0.99266624450683594,
        0.99502003192901611
      ],
      "min": [
        0.030031457543373108,
        0.016383426263928413
      ],
      "type": "VEC2"
    },
    {
      "bufferView": 0,
      "componentType": 5125,
      "count": 1668,
      "max": [
        1111
      ],
      "min": [
        0
      ],
      "type": "SCALAR"
    }
  ],
  "asset": {
    "generator": "Sketchfab (OSG glTF plugin)",
    "version": "2.0"
  },
  "bufferViews": [
    {
      "buffer": 0,
      "byteLength": 6672,
      "byteOffset": 0,
      "name": "floatBufferViews",
      "target": 34963
    },
    {
      "buffer": 0,
      "byteLength": 8896,
      "byteOffset": 6672,
      "byteStride": 8,
      "name": "floatBufferViews",
      "target": 34962
    },
    {
      "buffer": 0,
      "byteLength": 26688,
      "byteOffset": 15568,
      "byteStride": 12,
      "name": "floatBufferViews",
      "target": 34962
    },
    {
      "buffer": 0,
      "byteLength": 17792,
      "byteOffset": 42256,
      "byteStride": 16,
      "name": "floatBufferViews",
      "target": 34962
    }
  ],
  "buffers": [
    {
      "byteLength": 60048,
      "uri": "scene.bin"
    }
  ],
  "images": [
    {
      "uri": "textures/Default_baseColor.jpeg"
    },
    {
      "uri": "textures/Default_normal.png"
    },
    {
      "uri": "textures/Default_emissive.jpg"
    }
  ],
  "materials": [
    {
      "doubleSided": true,
      "emissiveFactor": [
        1,
        1,
        1
      ],
      "emissiveTexture": {
        "index": 2,
        "texCoord": 0
      },
      "name": "01 - Default",
      "normalTexture": {
        "index": 1,
        "scale": 0.91634908540000004,
        "texCoord": 0
      },
      "pbrMetallicRoughness": {
        "baseColorFactor": [
          1,
          1,
          1,
          1
        ],
        "baseColorTexture": {
          "index": 0,
          "texCoord": 0
        },
        "metallicFactor": 0.92244664629999995,
        "roughnessFactor": 0.2212271341
      }
    }
  ],
  "meshes": [
    {
      "name": "Box001_01 - Default_0",
      "primitives": [
        {
          "attributes": {
            "NORMAL": 1,
            "POSITION": 0,
            "TANGENT": 2,
            "TEXCOORD_0": 3
          },
          "indices": 4,
          "material": 0,
          "mode": 4
        }
      ]
    }
  ],
  "nodes": [
    {
      "children": [
        1
      ],
      "name": "RootNode (gltf orientation matrix)",
      "rotation": [
        -0.70710678118654746,
        -0,
        -0,
        0.70710678118654757
      ]
    },
    {
      "children": [
        2
      ],
      "name": "RootNode (model correction matrix)"
    },
    {
      "children": [
        3
      ],
      "matrix": [
        1,
        0,
        0,
        0,
        0,
        0,
        1,
        0,
        0,
        -1,
        0,
        0,
        0,
        0,
        0,
        1
      ],
      "name": "c9cc683f51414e05b350ec2b6d22fb4e.fbx"
    },
    {
      "children": [
        4
      ],
      "name": "RootNode"
    },
    {
      "children": [
        5
      ],
      "matrix": [
        0.44348835945129395,
        0,
        0,
        0,
        0,
        1.0025411157041464e-16,
        -0.45150437951087952,
        0,
        0,
        0.49722272157669067,
        1.1040562277224512e-16,
        0,
        0,
        6.9520120620727539,
        0,
        1
      ],
      "name": "Box001"
    },
    {
      "children": [
        7
      ],
      "matrix": [
        1,
        0,
        -0,
        0,
        0,
        1,
        0,
        0,
        0,
        0,
        1,
        0,
        27.707399368286133,
        4.6854901313781738,
        -19.193462371826172,
        1
      ],
      "name": ""
    },
    {
      "mesh": 0,
      "name": "Box001_01 - Default_0"
    },
    {
      "children": [
        6
      ],
      "name": "Geode"
    }
  ],
  "samplers": [
    {
      "magFilter": 9729,
      "minFilter": 9987,
      "wrapS": 10497,
      "wrapT": 10497
    }
  ],
  "scene": 0,
  "scenes": [
    {
      "name": "OSG_Scene",
      "nodes": [
        0
      ]
    }
  ],
  "textures": [
    {
      "sampler": 0,
      "source": 0
    },
    {
      "sampler": 0,
      "source": 1
    },
    {
      "sampler": 0,
      "source": 2
    }
  ]
}

